# File created by Blade
# Date/Time:  Thu Jan 22 18:06:37 2015
#---------------------------------------------------------
:version 1.10
:name HOM
:units
  mass 1.0
  length 1.000000
  angle deg
:documentation
     Acclaim Skeleton File
:root
   axis xyz
   order TX TY TZ RX RY RZ
   position 0.000000 0.000000 0.000000
   orientation 0 0 0
:bonedata
   begin
      id 1
      name RightUpLeg_dum
      direction -1.000000 0.000000 0.000000
      length 4.478084
      axis 0.0 0.0 0.0 xyz
   end
   begin
      id 2
      name LeftUpLeg_dum
      direction 1.000000 0.000000 0.000000
      length 4.478084
      axis 0.0 0.0 0.0 xyz
   end
   begin
      id 3
      name Spine_dum
      direction 0.000000 1.000000 0.000000
      length 6.068208
      axis 0.0 0.0 0.0 xyz
   end
   begin
      id 4
      name RightUpLeg
      direction 0.000000 -1.000000 0.000000
      length 16.405774
      axis 0.0 0.0 0.0 xyz
      dof rx ry rz
   end
   begin
      id 5
      name RightLeg
      direction 0.000000 -1.000000 0.000000
      length 14.644143
      axis 0.0 0.0 0.0 xyz
      dof rx ry rz
   end
   begin
      id 6
      name RightFoot
      direction 0.000000 -0.258819 0.965926
      length 5.806150
      axis 15.0 0.0 0.0 xyz
      dof rx ry rz
   end
   begin
      id 7
      name RightToeBase
      direction 0.000000 0.000000 1.000000
      length 2.952750
      axis 0.0 0.0 0.0 xyz
      dof rx ry rz
   end
   begin
      id 8
      name LeftUpLeg
      direction 0.000000 -1.000000 0.000000
      length 16.405774
      axis 0.0 0.0 0.0 xyz
      dof rx ry rz
   end
   begin
      id 9
      name LeftLeg
      direction 0.000000 -1.000000 0.000000
      length 14.644143
      axis 0.0 0.0 0.0 xyz
      dof rx ry rz
   end
   begin
      id 10
      name LeftFoot
      direction 0.000000 -0.258819 0.965926
      length 5.806150
      axis 15.0 0.0 0.0 xyz
      dof rx ry rz
   end
   begin
      id 11
      name LeftToeBase
      direction 0.000000 0.000000 1.000000
      length 2.952750
      axis 0.0 0.0 0.0 xyz
      dof rx ry rz
   end
   begin
      id 12
      name Spine
      direction 0.000000 1.000000 0.000000
      length 0.000000
      axis 0.0 0.0 0.0 xyz
      dof rx ry rz
   end
   begin
      id 13
      name Spine_dum1
      direction 0.000000 1.000000 0.000000
      length 10.013923
      axis 0.0 0.0 0.0 xyz
   end
   begin
      id 14
      name Spine_dum2
      direction 0.000000 1.000000 0.000000
      length 10.013923
      axis 0.0 0.0 0.0 xyz
   end
   begin
      id 15
      name Spine_dum3
      direction 0.000000 1.000000 0.000000
      length 15.777476
      axis 0.0 0.0 0.0 xyz
   end
   begin
      id 16
      name RightShoulder
      direction -1.000000 0.000000 0.000000
      length 7.190220
      axis 0.0 0.0 90.0 xyz
      dof rx ry rz
   end
   begin
      id 17
      name RightArm
      direction -1.000000 0.000000 0.000000
      length 10.177469
      axis 0.0 0.0 90.0 xyz
      dof rx ry rz
   end
   begin
      id 18
      name RightForeArm
      direction -1.000000 0.000000 0.000000
      length 8.392114
      axis 0.0 0.0 90.0 xyz
      dof ry rz rx
   end
   begin
      id 19
      name RightHand
      direction -1.000000 0.000000 0.000000
      length 0.000000
      axis 0.0 0.0 90.0 xyz
      dof rx ry rz
   end
   begin
      id 20
      name RightHand_dum1
      direction -1.000000 0.000000 0.000000
      length 3.937000
      axis 0.0 0.0 90.0 xyz
   end
   begin
      id 21
      name RightHand_dum2
      direction 0.000000 0.000000 0.000000
      length 0.000000
      axis 0.0 0.0 90.0 xyz
   end
   begin
      id 22
      name RightHandThumb1
      direction 0.000000 0.000000 1.000000
      length 3.937000
      axis 0.0 0.0 90.0 xyz
      dof rx rz ry
   end
   begin
      id 23
      name LeftShoulder
      direction 1.000000 0.000000 0.000000
      length 7.190220
      axis 0.0 0.0 -90.0 xyz
      dof rx ry rz
   end
   begin
      id 24
      name LeftArm
      direction 1.000000 0.000000 0.000000
      length 10.177469
      axis 0.0 0.0 -90.0 xyz
      dof rx ry rz
   end
   begin
      id 25
      name LeftForeArm
      direction 1.000000 0.000000 0.000000
      length 8.392114
      axis 0.0 0.0 -90.0 xyz
      dof ry rz rx
   end
   begin
      id 26
      name LeftHand
      direction 1.000000 0.000000 0.000000
      length 0.000000
      axis 0.0 0.0 -90.0 xyz
      dof rx ry rz
   end
   begin
      id 27
      name LeftHand_dum1
      direction 1.000000 0.000000 0.000000
      length 3.937000
      axis 0.0 0.0 -90.0 xyz
   end
   begin
      id 28
      name LeftHand_dum2
      direction 0.000000 0.000000 0.000000
      length 0.000000
      axis 0.0 0.0 -90.0 xyz
   end
   begin
      id 29
      name LeftHandThumb1
      direction 0.000000 0.000000 1.000000
      length 3.937000
      axis 0.0 0.0 -90.0 xyz
      dof rx rz ry
   end
   begin
      id 30
      name Head
      direction 0.000000 1.000000 0.000000
      length 4.527550
      axis 0.0 0.0 0.0 xyz
      dof rx ry rz
   end
:hierarchy
   begin
      root RightUpLeg_dum LeftUpLeg_dum Spine_dum
      RightUpLeg_dum RightUpLeg
      LeftUpLeg_dum LeftUpLeg
      Spine_dum Spine
      RightUpLeg RightLeg
      RightLeg RightFoot
      RightFoot RightToeBase
      LeftUpLeg LeftLeg
      LeftLeg LeftFoot
      LeftFoot LeftToeBase
      Spine Spine_dum1 Spine_dum2 Spine_dum3
      Spine_dum1 RightShoulder
      Spine_dum2 LeftShoulder
      Spine_dum3 Head
      RightShoulder RightArm
      RightArm RightForeArm
      RightForeArm RightHand
      RightHand RightHand_dum1 RightHand_dum2
      RightHand_dum2 RightHandThumb1
      LeftShoulder LeftArm
      LeftArm LeftForeArm
      LeftForeArm LeftHand
      LeftHand LeftHand_dum1 LeftHand_dum2
      LeftHand_dum2 LeftHandThumb1
   end

# File created by Blade
# Date/Time:  Thu Jan 22 18:06:27 2015
# Frame Rate: 120.000 fps
#------------------------------------------------------
:FULLY-SPECIFIED
:DEGREES
896
root 0.672428 32.856575 -2.681858 7.736207 21.538098 4.532454
RightUpLeg -28.605837 17.120396 -4.734833
RightLeg 81.615434 -0.000000 -0.000000
RightFoot 0.616896 -7.501742 -0.779348
RightToeBase -6.112907 -0.000000 0.000000
LeftUpLeg -1.016618 -12.260267 -10.607395
LeftLeg -0.443021 -0.000000 0.000000
LeftFoot -5.704317 -6.938375 -4.635588
LeftToeBase 9.115930 -0.000000 -0.000000
Spine -8.491487 -9.721297 -5.391759
RightShoulder -19.782844 -20.019821 -21.601976
RightArm 14.037338 28.238446 51.080604
RightForeArm -9.062187 0.000000 18.044220
RightHand 6.730895 -0.000000 10.113940
RightHandThumb1 -24.326973 -0.000000 -32.862282
LeftShoulder -20.069492 -0.073687 25.333301
LeftArm 30.894474 -26.185674 -58.909829
LeftForeArm 4.869100 -0.000000 46.513511
LeftHand 0.205835 -0.000000 36.451810
LeftHandThumb1 -26.253704 0.000000 33.147579
Head 20.154474 2.602374 -1.050874
897
root 0.667999 32.856410 -2.674316 7.649734 21.119442 4.486202
RightUpLeg -28.674502 16.829682 -4.771154
RightLeg 81.803389 -0.000000 -0.000000
RightFoot 0.780191 -7.579058 -1.040835
RightToeBase -6.529771 -0.000000 0.000000
LeftUpLeg -0.954099 -12.151598 -10.618847
LeftLeg -0.452696 -0.000000 0.000000
LeftFoot -5.788286 -6.683375 -4.559308
LeftToeBase 8.824714 -0.000000 -0.000000
Spine -8.504083 -9.475231 -5.409487
RightShoulder -19.710187 -19.887117 -21.660255
RightArm 14.060935 28.139125 51.043803
RightForeArm -9.101145 -0.000000 18.120635
RightHand 6.796907 -0.000000 10.089355
RightHandThumb1 -24.326973 -0.000000 -32.862282
LeftShoulder -20.106377 -0.102849 25.307664
LeftArm 30.725463 -26.444574 -58.860201
LeftForeArm 4.993451 -0.000000 46.497364
LeftHand 0.285607 -0.000000 36.264652
LeftHandThumb1 -26.253704 0.000000 33.147579
Head 20.192616 2.762725 -1.085182
898
root 0.664584 32.855280 -2.665072 7.542625 20.717976 4.449408
RightUpLeg -28.695108 16.533872 -4.805848
RightLeg 82.011165 -0.000000 -0.000000
RightFoot 0.878532 -7.657597 -1.136914
RightToeBase -6.523905 -0.000000 0.000000
LeftUpLeg -0.835819 -12.030021 -10.633388
LeftLeg -0.512521 -0.000000 0.000000
LeftFoot -5.834051 -6.455452 -4.566465
LeftToeBase 8.676376 -0.000000 -0.000000
Spine -8.489248 -9.258712 -5.428014
RightShoulder -19.595245 -19.791023 -21.742807
RightArm 14.071524 28.101686 51.043451
RightForeArm -9.200893 -0.000000 18.214614
RightHand 6.805673 -0.000000 9.999601
RightHandThumb1 -24.326973 -0.000000 -32.862282
LeftShoulder -20.146147 -0.128728 25.286710
LeftArm 30.575002 -26.735433 -58.842128
LeftForeArm 5.110420 -0.000000 46.439749
LeftHand 0.260493 -0.000000 36.266768
LeftHandThumb1 -26.253704 0.000000 33.147579
Head 20.213202 2.935865 -1.147260
899
root 0.661031 32.853956 -2.655529 7.445081 20.347101 4.426828
RightUpLeg -28.719136 16.269229 -4.826762
RightLeg 82.203692 -0.000000 -0.000000
RightFoot 0.922548 -7.828180 -0.995862
RightToeBase -6.054029 -0.000000 0.000000
LeftUpLeg -0.727604 -11.904693 -10.657868
LeftLeg -0.555193 -0.000000 0.000000
LeftFoot -5.895511 -6.248861 -4.560623
LeftToeBase 8.614545 -0.000000 -0.000000
Spine -8.474898 -9.088526 -5.458374
RightShoulder -19.480047 -19.714527 -21.803391
RightArm 14.113674 28.087876 51.037704
RightForeArm -9.291294 -0.000000 18.271805
RightHand 6.878658 0.000000 9.942623
RightHandThumb1 -24.326973 -0.000000 -32.862282
LeftShoulder -20.191759 -0.132796 25.273994
LeftArm 30.411851 -27.012347 -58.785052
LeftForeArm 5.196517 -0.000000 46.373284
LeftHand 0.277372 -0.000000 36.155036
LeftHandThumb1 -26.253704 0.000000 33.147579
Head 20.217212 3.103179 -1.187273
900
root 0.656244 32.853311 -2.650160 7.383947 19.989072 4.405975
RightUpLeg -28.779782 16.037110 -4.851431
RightLeg 82.382424 -0.000000 -0.000000
RightFoot 1.197032 -8.062259 -1.489695
RightToeBase -6.791204 -0.000000 0.000000
LeftUpLeg -0.675405 -11.778192 -10.679864
LeftLeg -0.567798 -0.000000 0.000000
LeftFoot -5.948358 -6.044483 -4.528742
LeftToeBase 8.580820 -0.000000 -0.000000
Spine -8.491143 -8.904680 -5.483003
RightShoulder -19.415823 -19.654744 -21.837056
RightArm 14.172080 28.071732 51.015896
RightForeArm -9.368843 -0.000000 18.328903
RightHand 6.930476 -0.000000 9.932127
RightHandThumb1 -24.326973 -0.000000 -32.862282
LeftShoulder -20.223102 -0.101349 25.254375
LeftArm 30.276432 -27.349828 -58.794222
LeftForeArm 5.162315 -0.000000 46.402366
LeftHand 0.324212 0.000000 35.653912
LeftHandThumb1 -26.253704 0.000000 33.147579
Head 20.206214 3.253023 -1.230241
901
root 0.653077 32.852546 -2.642747 7.314814 19.689683 4.376408
RightUpLeg -28.802072 15.709358 -4.865843
RightLeg 82.536700 -0.000000 -0.000000
RightFoot 1.291160 -8.267624 -1.468678
RightToeBase -6.830580 -0.000000 0.000000
LeftUpLeg -0.615903 -11.703689 -10.690539
LeftLeg -0.574313 -0.000000 0.000000
LeftFoot -6.017442 -5.839822 -4.465339
LeftToeBase 8.501914 -0.000000 -0.000000
Spine -8.507597 -8.760220 -5.477614
RightShoulder -19.361146 -19.631615 -21.870260
RightArm 14.239007 28.092354 50.991126
RightForeArm -9.435675 -0.000000 18.374772
RightHand 7.050993 0.000000 9.913932
RightHandThumb1 -24.326973 -0.000000 -32.862282
LeftShoulder -20.238777 -0.103664 25.228360
LeftArm 30.149495 -27.520342 -58.679893
LeftForeArm 5.384436 -0.000000 46.215920
LeftHand 0.165442 -0.000000 36.033495
LeftHandThumb1 -26.253704 0.000000 33.147579
Head 20.213312 3.393054 -1.296784
902
root 0.648921 32.850741 -2.634477 7.228995 19.411608 4.368977
RightUpLeg -28.793083 15.405179 -4.883310
RightLeg 82.672858 -0.000000 -0.000000
RightFoot 1.309082 -8.482213 -1.310161
RightToeBase -6.293810 -0.000000 0.000000
LeftUpLeg -0.537060 -11.589829 -10.726011
LeftLeg -0.563562 -0.000000 0.000000
LeftFoot -6.080154 -5.677470 -4.401347
LeftToeBase 8.389900 -0.000000 -0.000000
Spine -8.481498 -8.637579 -5.509119
RightShoulder -19.298772 -19.539550 -21.922602
RightArm 14.249284 28.061179 50.950384
RightForeArm -9.482676 -0.000000 18.397370
RightHand 7.122423 -0.000000 9.790348
RightHandThumb1 -24.326973 -0.000000 -32.862282
LeftShoulder -20.256215 -0.076025 25.237539
LeftArm 29.990814 -27.794230 -58.645301
LeftForeArm 5.293471 -0.000000 46.202508
LeftHand 0.270059 -0.000000 35.621468
LeftHandThumb1 -26.253704 0.000000 33.147579
Head 20.185163 3.522078 -1.340850
903
root 0.642763 32.849972 -2.625506 7.151514 19.165951 4.351086
RightUpLeg -28.777021 15.105700 -4.878719
RightLeg 82.775471 -0.000000 -0.000000
RightFoot 1.493786 -8.750919 -1.554397
RightToeBase -7.109666 -0.000000 0.000000
LeftUpLeg -0.472260 -11.488689 -10.741049
LeftLeg -0.544836 -0.000000 0.000000
LeftFoot -6.152379 -5.522570 -4.337347
LeftToeBase 8.303011 -0.000000 -0.000000
Spine -8.468477 -8.548370 -5.520460
RightShoulder -19.229491 -19.451818 -21.975350
RightArm 14.216280 28.073149 50.916915
RightForeArm -9.527847 0.000000 18.495337
RightHand 7.082725 -0.000000 9.675283
RightHandThumb1 -24.326973 -0.000000 -32.862282
LeftShoulder -20.284323 -0.052929 25.234512
LeftArm 29.869562 -27.925986 -58.520957
LeftForeArm 5.477448 -0.000000 46.006615
LeftHand 0.311544 -0.000000 35.908045
LeftHandThumb1 -26.253704 0.000000 33.147579
Head 20.163060 3.661727 -1.391714
904
root 0.638937 32.849633 -2.613771 7.055592 18.956954 4.327718
RightUpLeg -28.711538 14.798025 -4.848076
RightLeg 82.845602 -0.000000 -0.000000
RightFoot 1.557077 -9.046909 -1.490389
RightToeBase -7.221686 -0.000000 0.000000
LeftUpLeg -0.381853 -11.420970 -10.753543
LeftLeg -0.529324 -0.000000 0.000000
LeftFoot -6.215714 -5.363797 -4.308438
LeftToeBase 8.386684 -0.000000 -0.000000
Spine -8.438701 -8.489282 -5.505981
RightShoulder -19.184913 -19.404708 -22.008047
RightArm 14.237858 28.142161 50.889081
RightForeArm -9.596574 0.000000 18.546068
RightHand 7.256755 -0.000000 9.583636
RightHandThumb1 -24.326973 -0.000000 -32.862282
LeftShoulder -20.329129 -0.011186 25.203058
LeftArm 29.749412 -28.057335 -58.388529
LeftForeArm 5.447934 -0.000000 45.899246
LeftHand 0.244562 0.000000 36.077381
LeftHandThumb1 -26.253704 0.000000 33.147579
Head 20.142719 3.759825 -1.476098
905
root 0.633039 32.849213 -2.604407 6.974039 18.762017 4.308766
RightUpLeg -28.660272 14.494420 -4.825560
RightLeg 82.908762 -0.000000 -0.000000
RightFoot 1.629323 -9.317849 -1.343796
RightToeBase -7.450788 -0.000000 0.000000
LeftUpLeg -0.321241 -11.315840 -10.766148
LeftLeg -0.485157 -0.000000 0.000000
LeftFoot -6.277157 -5.248663 -4.236133
LeftToeBase 8.304756 -0.000000 -0.000000
Spine -8.411682 -8.415617 -5.504273
RightShoulder -19.166223 -19.337005 -22.033959
RightArm 14.226885 28.174768 50.846806
RightForeArm -9.674632 -0.000000 18.606982
RightHand 7.322046 -0.000000 9.372933
RightHandThumb1 -24.326973 -0.000000 -32.862282
LeftShoulder -20.357576 0.027175 25.173291
LeftArm 29.645022 -28.183828 -58.249942
LeftForeArm 5.399355 -0.000000 45.786523
LeftHand 0.262778 0.000000 36.090149
LeftHandThumb1 -26.253704 0.000000 33.147579
Head 20.100893 3.836784 -1.538967
906
root 0.629847 32.848382 -2.594914 6.890534 18.596697 4.293699
RightUpLeg -28.590566 14.197151 -4.806325
RightLeg 82.954807 -0.000000 -0.000000
RightFoot 1.623190 -9.537512 -1.239028
RightToeBase -7.490853 -0.000000 0.000000
LeftUpLeg -0.251391 -11.213785 -10.783242
LeftLeg -0.452983 -0.000000 0.000000
LeftFoot -6.376680 -5.156187 -4.341384
LeftToeBase 8.657995 -0.000000 -0.000000
Spine -8.376353 -8.368439 -5.496028
RightShoulder -19.143153 -19.342243 -22.033047
RightArm 14.251985 28.245802 50.805490
RightForeArm -9.659889 -0.000000 18.659754
RightHand 7.387455 0.000000 9.160819
RightHandThumb1 -24.326973 -0.000000 -32.862282
LeftShoulder -20.395317 0.054070 25.152172
LeftArm 29.500976 -28.254567 -58.084141
LeftForeArm 5.343990 -0.000000 45.719617
LeftHand 0.345385 0.000000 35.944959
LeftHandThumb1 -26.253704 0.000000 33.147579
Head 20.056885 3.906256 -1.588744
907
root 0.626358 32.847335 -2.582826 6.819047 18.417380 4.275141
RightUpLeg -28.523807 13.922377 -4.779271
RightLeg 82.986641 -0.000000 -0.000000
RightFoot 1.595129 -9.839459 -1.103334
RightToeBase -6.867858 -0.000000 0.000000
LeftUpLeg -0.176550 -11.067878 -10.794619
LeftLeg -0.448153 -0.000000 0.000000
LeftFoot -6.421168 -5.096288 -4.265273
LeftToeBase 8.749088 -0.000000 -0.000000
Spine -8.369083 -8.295506 -5.484298
RightShoulder -19.124766 -19.300329 -22.051048
RightArm 14.203641 28.332473 50.745588
RightForeArm -9.687272 -0.000000 18.724987
RightHand 7.595848 -0.000000 9.020485
RightHandThumb1 -24.326973 -0.000000 -32.862282
LeftShoulder -20.430826 0.064692 25.131410
LeftArm 29.347569 -28.262331 -57.872459
LeftForeArm 5.276519 -0.000000 45.632795
LeftHand 0.393976 -0.000000 35.897990
LeftHandThumb1 -26.253704 0.000000 33.147579
Head 20.018633 3.940239 -1.644002
